Coordinates
version=1
nRows=12
nColumns=38
inDegrees=yes

Units are S.I. units (second, meters, Newtons, ...)
Angles are in degrees.

endheader
time	pelvis_tilt	pelvis_list	pelvis_rotation	pelvis_tx	pelvis_ty	pelvis_tz	hip_flexion_r	hip_adduction_r	hip_rotation_r	knee_angle_r	ankle_angle_r	subtalar_angle_r	mtp_angle_r	hip_flexion_l	hip_adduction_l	hip_rotation_l	knee_angle_l	ankle_angle_l	subtalar_angle_l	mtp_angle_l	lumbar_extension	lumbar_bending	lumbar_rotation	arm_flex_r	arm_add_r	arm_rot_r	elbow_flex_r	pro_sup_r	wrist_flex_r	wrist_dev_r	arm_flex_l	arm_add_l	arm_rot_l	elbow_flex_l	pro_sup_l	wrist_flex_l	wrist_dev_l
      2.09000000	     -2.29220282	      2.56503880	     -2.72765837	      1.03524551	      0.89480405	     -0.17407152	     18.59474306	      1.17064080	      0.28739790	    -59.20249124	      7.94262131	     -2.39579350	      0.00000000	     14.27526442	      7.47541076	      5.22990878	    -20.52705910	      7.54024171	     -3.60456443	      0.00000000	     -6.70835386	     -5.45582083	      5.26075946	      4.55952555	     -5.96926929	     40.15897447	     35.72375959	     44.63880740	      0.00000000	      0.00000000	     -4.63897792	     -5.32226574	     24.66317410	     28.78963541	     44.63880740	      0.00000000	      0.00000000
      2.10000000	     -2.38764702	      2.46338664	     -2.36827811	      1.04659416	      0.89631592	     -0.17431151	     20.11745626	      0.88334537	     -0.77709669	    -58.42427303	      8.22741645	     -4.25698920	      0.00000000	     13.12104202	      7.44913048	      5.69226134	    -19.67854076	      7.67553687	     -3.49432727	      0.00000000	     -6.66554116	     -5.26231692	      4.74470607	      4.27616413	     -6.00932674	     40.14512427	     35.49452212	     44.64121076	      0.00000000	      0.00000000	     -3.86094132	     -5.36081589	     24.82266406	     29.09232803	     44.64121076	      0.00000000	      0.00000000
      2.11000000	     -2.50456475	      2.26818486	     -1.94389267	      1.05778053	      0.89766139	     -0.17444801	     21.47333047	      0.84557354	     -1.32824142	    -57.12510745	      8.55529376	     -5.56978454	      0.00000000	     12.05928015	      7.33102609	      6.16365932	    -18.94528976	      7.93774806	     -3.49231453	      0.00000000	     -6.66258503	     -5.05317629	      4.30917281	      4.05814884	     -6.03234785	     40.11749476	     35.28993965	     44.64318466	      0.00000000	      0.00000000	     -3.07194733	     -5.40570728	     24.95900899	     29.42327352	     44.64318466	      0.00000000	      0.00000000
      2.12000000	     -2.43295081	      1.91873806	     -1.53359877	      1.06893929	      0.89888519	     -0.17450582	     22.33247012	      1.34737425	     -1.35217099	    -55.28422689	      8.07087034	     -8.19612617	      0.00000000	     10.90731931	      7.12689446	      7.12438598	    -18.48417424	      8.26907284	     -4.02131251	      0.00000000	     -6.88719163	     -4.63341893	      3.82239728	      3.75489469	     -5.91215922	     39.90629216	     34.79879361	     44.64843920	      0.00000000	      0.00000000	     -2.29663809	     -5.55881012	     25.39051840	     30.03417409	     44.64843920	      0.00000000	      0.00000000
      2.13000000	     -2.53830267	      1.68749762	     -1.12365537	      1.07991647	      0.89951634	     -0.17464265	     23.51985426	      1.48541400	     -1.52870578	    -53.45020287	      7.82194234	     -9.49190754	      0.00000000	      9.85430390	      7.05997637	      8.35580611	    -17.81143386	      8.32814256	     -5.02640062	      0.00000000	     -6.90390737	     -4.34488538	      3.35295739	      3.62977917	     -5.74453258	     39.46523515	     34.06038144	     44.66081268	      0.00000000	      0.00000000	     -1.52331478	     -5.93539416	     26.30448030	     31.15126317	     44.66081268	      0.00000000	      0.00000000
      2.14000000	     -2.56471678	      1.33761476	     -0.76704558	      1.09077993	      0.89979803	     -0.17475621	     24.64207144	      1.69462185	     -1.62769635	    -51.49444746	      7.61440294	     -9.94624619	      0.00000000	      8.96793130	      6.82479481	      9.12427364	    -17.59165491	      8.86327632	     -5.43615695	      0.00000000	     -7.02818837	     -3.90515315	      2.96750027	      3.45428540	     -5.79162066	     39.24087043	     33.71475080	     44.66993503	      0.00000000	      0.00000000	     -0.67706846	     -6.09628581	     26.79473360	     31.89154924	     44.66993503	      0.00000000	      0.00000000
      2.15000000	     -2.54897982	      0.97192958	     -0.34090967	      1.10176858	      0.89983803	     -0.17485290	     25.45300097	      1.92258957	     -1.71722647	    -49.11202883	      7.26812749	    -10.44049314	      0.00000000	      8.10093154	      6.55059558	      9.92182949	    -17.55817530	      9.57333211	     -5.64937419	      0.00000000	     -7.18898359	     -3.45635107	      2.59646200	      3.18906812	     -5.91090897	     39.15253414	     33.51365094	     44.67356973	      0.00000000	      0.00000000	      0.24568441	     -6.16844260	     26.93956746	     32.38900547	     44.67356973	      0.00000000	      0.00000000
      2.16000000	     -2.58882683	      0.76011361	      0.05331719	      1.11262715	      0.89959990	     -0.17499480	     26.45830036	      1.97634317	     -1.55855901	    -46.71101945	      7.20688201	    -10.19285521	      0.00000000	      7.35595425	      6.40743895	     10.43163283	    -17.70462574	     10.14230575	     -5.80391988	      0.00000000	     -7.30909820	     -3.20403945	      2.15431058	      3.04539754	     -5.99017206	     39.08140189	     33.37227340	     44.67586546	      0.00000000	      0.00000000	      1.15807519	     -6.27810700	     27.01126630	     32.84614365	     44.67586546	      0.00000000	      0.00000000
      2.17000000	     -2.53695398	      0.45944205	      0.49900224	      1.12362783	      0.89901608	     -0.17522914	     27.10839595	      2.10928098	     -1.58128533	    -43.97472305	      6.99434547	    -10.17816180	      0.00000000	      6.34434599	      6.14977248	     11.15105873	    -17.34593787	     10.97356654	     -5.87733262	      0.00000000	     -7.50955778	     -2.79167630	      1.75044571	      2.84290774	     -6.11396142	     38.97881507	     33.16696369	     44.67872522	      0.00000000	      0.00000000	      2.04515785	     -6.36834448	     27.13917729	     33.45955896	     44.67872522	      0.00000000	      0.00000000
      2.18000000	     -2.55720450	      0.34399833	      0.87414841	      1.13454633	      0.89805783	     -0.17537044	     27.71763353	      2.11387329	     -1.46504850	    -40.97760002	      6.91503195	    -10.12379157	      0.00000000	      5.47209986	      6.06714217	     11.79825776	    -17.20536536	     11.52495540	     -5.84870724	      0.00000000	     -7.63976709	     -2.61825079	      1.31483772	      2.69278442	     -6.20151175	     38.91809703	     33.03481383	     44.68026897	      0.00000000	      0.00000000	      3.04207218	     -6.50350264	     27.16767102	     33.96281557	     44.68026897	      0.00000000	      0.00000000
      2.19000000	     -2.30177184	      0.09177937	      1.31460967	      1.14571966	      0.89737150	     -0.17543220	     28.11667734	      2.32495415	     -1.25926754	    -37.97312326	      5.82492965	    -10.71957480	      0.00000000	      4.27628224	      5.85070584	     12.74755362	    -17.06059056	     12.30421764	     -6.31164812	      0.00000000	     -8.09748793	     -2.32496229	      0.99161568	      2.51310184	     -6.29560488	     38.73586293	     32.73941432	     44.68469685	      0.00000000	      0.00000000	      3.85122253	     -6.68233292	     27.41938977	     35.02187557	     44.68469685	      0.00000000	      0.00000000
      2.20000000	     -2.12337114	      0.14039440	      1.67919890	      1.15703822	      0.89629172	     -0.17557825	     28.25524388	      2.09516472	     -1.15475951	    -34.73222253	      5.66253916	     -9.79847034	      0.00000000	      3.09041810	      5.97496304	     13.67924701	    -16.80385695	     12.77281769	     -7.18499137	      0.00000000	     -8.43931371	     -2.34493772	      0.59236442	      2.39384689	     -6.15168705	     38.16506107	     32.18966828	     44.70392473	      0.00000000	      0.00000000	      4.22879679	     -7.43788737	     27.95822759	     37.84607035	     44.70392473	      0.00000000	      0.00000000
